<?xml version="1.0" encoding="utf-8"?>
<!-- Generator: Adobe Illustrator 24.2.0, SVG Export Plug-In . SVG Version: 6.00 Build 0)  -->
<svg version="1.1" id="Capa_1" xmlns="http://www.w3.org/2000/svg" xmlns:xlink="http://www.w3.org/1999/xlink" x="0px" y="0px"
	 viewBox="0 0 574 371" style="enable-background:new 0 0 574 371;" xml:space="preserve">
<style type="text/css">
	.st0{fill:#FFFFFF;}
</style>
<g>
	<g id="Capa_x0020_1_1_">
		<g id="_3130748257120_1_">
			<path class="st0" d="M365.64,242.38c-2.78,0.24-5.05,1.27-6.75,3.06c-0.21,0.21-0.43,0.14-0.49,0.11
				c-0.09-0.04-0.25-0.15-0.25-0.4v-0.25c0-1.1-0.86-2-1.92-2h-3.01c-1.06,0-1.92,0.9-1.92,2v29.68c0,1.1,0.86,2,1.92,2h3.01
				c1.06,0,1.92-0.89,1.92-2v-15.8c0-3.25,0.86-5.62,2.56-7.04c1.49-1.25,3.25-1.92,5.24-2.02c1.02-0.05,1.81-0.94,1.81-2.04v-3.3
				c0-0.57-0.22-1.08-0.62-1.47C366.73,242.52,366.19,242.34,365.64,242.38z"/>
			<path class="st0" d="M333.88,254.29c2.09,0,3.81-0.74,5.16-2.21c1.35-1.47,2.03-3.34,2.03-5.6s-0.68-4.13-2.03-5.6
				c-1.35-1.47-3.07-2.21-5.16-2.21h-8.18c-0.33,0-0.6,0.28-0.6,0.63v14.37c0,0.35,0.27,0.63,0.6,0.63
				C325.7,254.29,333.88,254.29,333.88,254.29z M333.88,231.74c4.06,0,7.44,1.41,10.17,4.23c2.72,2.82,4.09,6.32,4.09,10.51
				c0,4.14-1.36,7.63-4.09,10.47c-2.73,2.84-6.11,4.26-10.17,4.26h-8.18c-0.33,0-0.6,0.28-0.6,0.63v12.63
				c0,1.17-0.91,2.11-2.03,2.11h-3.01c-1.12,0-2.03-0.95-2.03-2.11v-40.6c0-1.17,0.91-2.12,2.03-2.12
				C320.06,231.74,333.88,231.74,333.88,231.74z"/>
			<path class="st0" d="M392.54,267.35c-1.97,2.05-4.34,3.05-7.24,3.05c-2.86,0-5.21-1-7.18-3.05c-1.97-2.05-2.93-4.54-2.93-7.61
				s0.95-5.56,2.93-7.61c1.97-2.05,4.31-3.05,7.18-3.05c2.9,0,5.27,1,7.24,3.05c1.97,2.05,2.93,4.54,2.93,7.61
				S394.51,265.3,392.54,267.35z M385.3,242.06c-4.7,0-8.74,1.72-12.02,5.11c-3.27,3.39-4.94,7.62-4.94,12.56
				c0,4.95,1.66,9.18,4.94,12.56c3.27,3.39,7.32,5.11,12.02,5.11s8.76-1.72,12.05-5.1c3.29-3.39,4.97-7.62,4.97-12.57
				c0-4.95-1.67-9.18-4.97-12.57C394.05,243.78,390,242.06,385.3,242.06z"/>
			<path class="st0" d="M431.7,242.9h-3.25c-0.8,0-1.5,0.5-1.79,1.28l-8.29,22.34c-0.1,0.26-0.32,0.29-0.4,0.29
				c-0.09,0-0.3-0.03-0.4-0.29l-8.29-22.34c-0.28-0.78-0.99-1.28-1.79-1.28h-3.25c-0.64,0-1.23,0.33-1.59,0.88
				c-0.35,0.55-0.43,1.25-0.19,1.86l11.38,29.68c0.29,0.76,0.99,1.26,1.78,1.26h4.69c0.79,0,1.49-0.49,1.78-1.26l11.39-29.67
				c0.24-0.62,0.16-1.31-0.19-1.86C432.94,243.23,432.34,242.9,431.7,242.9z"/>
			<path class="st0" d="M442.96,242.9h-3.01c-1.06,0-1.92,0.9-1.92,2v29.68c0,1.11,0.86,2,1.92,2h3.01c1.06,0,1.92-0.89,1.92-2
				V244.9C444.87,243.8,444.01,242.9,442.96,242.9z"/>
			<path class="st0" d="M441.48,229.54c-1.23,0-2.28,0.46-3.12,1.36c-0.83,0.89-1.26,1.97-1.26,3.21c0,1.24,0.43,2.31,1.27,3.19
				c0.84,0.88,1.89,1.32,3.11,1.32c1.19,0,2.21-0.44,3.05-1.32c0.84-0.88,1.26-1.95,1.26-3.19c0-1.23-0.42-2.31-1.26-3.21
				C443.7,230,442.67,229.54,441.48,229.54z"/>
			<path class="st0" d="M467.16,242.06c-3.49,0-6.36,1.07-8.55,3.19c-0.16,0.15-0.33,0.1-0.42,0.07c-0.06-0.03-0.27-0.14-0.27-0.42
				c0-1.1-0.86-2-1.92-2h-3.01c-1.06,0-1.92,0.9-1.92,2v29.68c0,1.1,0.86,2,1.92,2H456c1.06,0,1.92-0.9,1.92-2v-15.8
				c0-3.37,0.76-5.88,2.25-7.45c1.51-1.6,3.46-2.37,5.94-2.37c2.2,0,3.86,0.63,5.08,1.92c1.21,1.28,1.82,3.14,1.82,5.53v18.18
				c0,1.1,0.86,2,1.92,2h3.01c1.06,0,1.92-0.9,1.92-2v-18.5c0-4.26-1.17-7.69-3.47-10.21C474.07,243.35,470.97,242.06,467.16,242.06
				z"/>
			<path class="st0" d="M513.94,266.99l-2.53-1.54c-0.86-0.52-1.98-0.27-2.53,0.59c-0.75,1.17-1.75,2.14-2.97,2.89
				c-1.52,0.93-3.26,1.4-5.17,1.4c-2.9,0-5.26-1-7.2-3.05c-1.95-2.05-2.9-4.52-2.9-7.55c0-3.07,0.95-5.56,2.9-7.61
				c1.95-2.05,4.3-3.05,7.2-3.05c1.91,0,3.63,0.48,5.13,1.43c1.19,0.75,2.14,1.72,2.83,2.86c0.54,0.9,1.67,1.18,2.56,0.64l2.49-1.49
				c0.45-0.27,0.78-0.72,0.91-1.24c0.13-0.5,0.06-1.02-0.19-1.47c-1.23-2.19-2.96-3.99-5.14-5.36c-2.53-1.59-5.42-2.39-8.58-2.39
				c-4.82,0-8.9,1.71-12.11,5.08c-3.21,3.37-4.84,7.6-4.84,12.6c0,4.99,1.63,9.23,4.84,12.6c3.21,3.37,7.29,5.08,12.11,5.08
				c3.12,0,6.01-0.8,8.58-2.39c2.17-1.34,3.94-3.08,5.25-5.17c0.3-0.48,0.4-1.06,0.28-1.61
				C514.72,267.71,514.4,267.27,513.94,266.99z"/>
			<path class="st0" d="M522.22,229.54c-1.23,0-2.28,0.46-3.12,1.36c-0.83,0.89-1.26,1.97-1.26,3.21c0,1.24,0.43,2.31,1.27,3.19
				c0.84,0.88,1.89,1.32,3.11,1.32c1.19,0,2.21-0.44,3.06-1.32c0.84-0.88,1.26-1.95,1.26-3.19c0-1.23-0.42-2.31-1.26-3.21
				C524.44,230,523.4,229.54,522.22,229.54z"/>
			<path class="st0" d="M523.69,242.9h-3.01c-1.06,0-1.92,0.9-1.92,2v29.68c0,1.11,0.86,2,1.92,2h3.01c1.06,0,1.92-0.89,1.92-2
				V244.9C525.61,243.8,524.75,242.9,523.69,242.9z"/>
			<path class="st0" d="M554.19,267.38c-1.96,2.07-4.36,3.08-7.3,3.08c-2.9,0-5.27-1.01-7.24-3.08c-1.97-2.07-2.93-4.57-2.93-7.65
				c0-3.07,0.96-5.57,2.93-7.65c1.97-2.07,4.34-3.08,7.24-3.08c2.94,0,5.33,1.01,7.3,3.08c1.97,2.08,2.93,4.58,2.93,7.65
				C557.12,262.81,556.17,265.31,554.19,267.38z M562.06,242.9h-3.01c-1.06,0-1.92,0.89-1.92,2v0.89c0,0.25-0.15,0.36-0.25,0.4
				c-0.07,0.03-0.29,0.1-0.49-0.11c-2.62-2.66-6.04-4.02-10.16-4.02c-4.51,0-8.4,1.73-11.57,5.15c-3.17,3.41-4.77,7.62-4.77,12.52
				c0,4.9,1.6,9.11,4.77,12.52c3.17,3.42,7.06,5.15,11.57,5.15c4.12,0,7.54-1.36,10.16-4.02c0.21-0.21,0.43-0.13,0.49-0.1
				c0.09,0.04,0.25,0.15,0.25,0.4v0.89c0,1.11,0.86,2,1.92,2h3.01c1.06,0,1.92-0.9,1.92-2V244.9
				C563.97,243.8,563.11,242.9,562.06,242.9z"/>
			<path class="st0" d="M43.04,204.53c-9.87,0-18.25-2.34-25.14-7.03c-5.68-3.86-9.95-8.9-12.8-15.11
				c-1.04-2.27-0.24-4.99,1.84-6.26l6.62-4.04c2.22-1.36,5.1-0.54,6.31,1.83c4.58,9,12.45,13.51,23.61,13.51
				c6.35,0,11.11-1.29,14.29-3.88c3.17-2.59,4.76-5.97,4.76-10.14c0-4.37-1.71-7.7-5.14-9.98c-3.42-2.28-9.47-4.79-18.14-7.53
				c-0.04-0.01-0.07-0.03-0.11-0.04c-4.75-1.84-8.66-3.35-11.72-4.54c-3.08-1.19-6.3-2.98-9.67-5.38c-3.37-2.39-5.89-5.37-7.55-8.94
				c-1.66-3.57-2.49-7.74-2.49-12.53c0-9.48,3.23-16.99,9.68-22.54c6.45-5.55,14.22-8.33,23.3-8.33c8.21,0,15.39,2.09,21.55,6.27
				c4.88,3.31,8.87,7.61,11.97,12.91c1.35,2.32,0.61,5.35-1.64,6.7l-6.3,3.79c-2.11,1.27-4.78,0.54-6.08-1.61
				c-4.39-7.3-10.89-10.95-19.49-10.95c-4.89,0-8.79,1.2-11.73,3.59c-2.93,2.39-4.4,5.63-4.4,9.7c0,3.89,1.5,6.96,4.5,9.2
				c2.99,2.24,8.4,4.6,16.23,7.09c0.04,0.01,0.08,0.03,0.11,0.04c3.8,1.5,6.6,2.59,8.37,3.29c1.78,0.7,4.34,1.7,7.67,3.01
				c3.33,1.31,5.82,2.69,7.47,4.13c1.65,1.45,3.41,3.25,5.31,5.42c1.89,2.17,3.22,4.64,4,7.43c0.77,2.78,1.16,5.93,1.16,9.44
				c0,9.68-3.35,17.35-10.04,23C62.66,201.71,53.89,204.53,43.04,204.53z"/>
			<path class="st0" d="M484.94,112.38h-37.02c-0.98,0-1.77,0.82-1.77,1.84v26.27c0,1.02,0.79,1.84,1.77,1.84h32.91
				c2.46,0,4.46,2.08,4.46,4.64v7.52c0,2.56-1.99,4.64-4.46,4.64h-32.91c-0.98,0-1.77,0.82-1.77,1.84v36.91
				c0,2.57-1.99,4.65-4.45,4.65h-7.95c-2.46,0-4.45-2.08-4.45-4.65v-97.68c0-2.57,1.99-4.65,4.45-4.65h51.19
				c2.46,0,4.45,2.08,4.45,4.65v7.52C489.4,110.3,487.41,112.38,484.94,112.38z"/>
			<path class="st0" d="M128.04,187.48c-6.92,0-12.57-2.41-17.27-7.35c-4.7-4.95-6.99-10.92-6.99-18.24
				c0-7.32,2.29-13.29,6.99-18.24c4.7-4.94,10.34-7.35,17.27-7.35c7.02,0,12.72,2.4,17.42,7.35c4.7,4.95,6.98,10.92,6.98,18.24
				c0,7.33-2.28,13.29-6.98,18.24C140.76,185.08,135.06,187.48,128.04,187.48z M165.06,122.16h-9.35c-1.81,0-3.28,1.53-3.28,3.42
				v2.04c0,1.52-1.73,2.32-2.8,1.3c-6.09-5.81-13.86-8.74-23.2-8.74c-10.63,0-19.81,4.09-27.29,12.16
				c-7.47,8.05-11.25,17.99-11.25,29.55c0,11.56,3.78,21.51,11.25,29.56c7.49,8.06,16.67,12.15,27.29,12.15
				c9.34,0,17.11-2.93,23.2-8.74c1.07-1.02,2.8-0.22,2.8,1.3v2.04c0,1.88,1.47,3.41,3.28,3.41h9.35c1.81,0,3.27-1.53,3.27-3.41
				v-72.62C168.34,123.69,166.87,122.16,165.06,122.16z"/>
			<path class="st0" d="M219.97,120.18c-7.8,0-14.27,2.26-19.31,6.74c-1.09,0.96-2.75,0.14-2.75-1.34c0-1.89-1.47-3.42-3.28-3.42
				h-9.34c-1.81,0-3.28,1.53-3.28,3.42v72.62c0,1.89,1.47,3.41,3.28,3.41h9.34c1.81,0,3.28-1.53,3.28-3.41v-38.6
				c0-8.03,1.81-14.02,5.38-17.78c3.61-3.81,8.26-5.67,14.2-5.67c5.25,0,9.23,1.5,12.15,4.61c2.89,3.06,4.36,7.51,4.36,13.22v44.23
				c0,1.89,1.47,3.41,3.28,3.41h9.35c1.81,0,3.27-1.53,3.27-3.41v-44.99c0-10.04-2.75-18.14-8.18-24.07
				C236.27,123.2,228.95,120.18,219.97,120.18z"/>
			<path class="st0" d="M300.27,122.16H285.8c-0.93,0-1.68-0.78-1.68-1.75v-17.9c0-0.52-0.24-1.02-0.64-1.33
				c-0.28-0.22-0.62-0.33-0.96-0.33c-0.15,0-0.3,0.02-0.45,0.07l-11.51,3.58c-1.39,0.43-2.34,1.77-2.34,3.27v12.64
				c0,0.97-0.75,1.75-1.68,1.75h-9.5c-1.81,0-3.28,1.53-3.28,3.41v9.29c0,1.89,1.47,3.42,3.28,3.42h9.5c0.93,0,1.68,0.78,1.68,1.75
				v37.85c0,10.01,2.86,16.96,8.49,20.67c3.8,2.51,9.12,3.78,15.8,3.78c2.5,0,5.23-0.18,8.15-0.52c1.65-0.2,2.89-1.67,2.89-3.39
				v-10.33c0-0.46-0.18-0.89-0.49-1.2c-0.3-0.3-0.69-0.46-1.1-0.46c-0.03,0-0.05,0-0.08,0c-3.37,0.16-6.36,0.24-8.87,0.24
				c-0.64,0-1.25,0-1.84-0.01c-2.46-0.04-4.27-0.69-5.36-1.91c-1.12-1.25-1.69-3.56-1.69-6.86v-37.85c0-0.97,0.75-1.75,1.68-1.75
				h14.47c1.81,0,3.28-1.53,3.28-3.42v-9.29C303.54,123.69,302.08,122.16,300.27,122.16z"/>
			<path class="st0" d="M345.66,187.48c-6.92,0-12.57-2.41-17.27-7.35c-4.7-4.95-6.99-10.92-6.99-18.24
				c0-7.32,2.29-13.29,6.99-18.24c4.7-4.94,10.34-7.35,17.27-7.35c7.02,0,12.71,2.4,17.42,7.35c4.7,4.95,6.98,10.92,6.98,18.24
				c0,7.33-2.28,13.29-6.98,18.24C358.38,185.08,352.68,187.48,345.66,187.48z M382.68,122.16h-9.35c-1.81,0-3.28,1.53-3.28,3.42
				v2.04c0,1.52-1.73,2.32-2.8,1.3c-6.09-5.81-13.86-8.74-23.2-8.74c-10.63,0-19.81,4.09-27.29,12.16
				c-7.47,8.05-11.26,17.99-11.26,29.55c0,11.56,3.79,21.51,11.26,29.56c7.49,8.06,16.67,12.15,27.29,12.15
				c9.34,0,17.11-2.93,23.2-8.74c1.07-1.02,2.8-0.22,2.8,1.3v2.04c0,1.88,1.47,3.41,3.28,3.41h9.35c1.81,0,3.27-1.53,3.27-3.41
				v-72.62C385.95,123.69,384.49,122.16,382.68,122.16z"/>
			<path class="st0" d="M515.49,141.61c4.16-3.73,9.51-5.61,15.9-5.61c5.43,0,10.25,1.77,14.32,5.26c3.18,2.72,5.44,6.51,6.75,11.28
				c0.31,1.11-0.52,2.22-1.62,2.22h-40.56c-1.16,0-1.95-1.18-1.59-2.32C510.03,148.08,512.31,144.45,515.49,141.61z M558.79,132.54
				c-7.05-8.2-16.27-12.35-27.4-12.35c-11.69,0-21.36,4.01-28.75,11.92c-7.37,7.9-11.11,17.92-11.11,29.79
				c0,11.98,3.82,22.03,11.34,29.88c7.53,7.85,17.42,11.83,29.39,11.83c12.65,0,22.71-4.41,29.98-13.12
				c2.01-2.41,1.33-6.15-1.32-7.75l-4.91-2.97c-2.05-1.24-4.62-0.74-6.21,1.09c-4.07,4.67-9.75,6.94-17.25,6.94
				c-6.52,0-12.07-1.78-16.48-5.29c-3.33-2.65-5.76-6.17-7.25-10.51c-0.39-1.13,0.42-2.34,1.59-2.34h55.44
				c1.66,0,3.07-1.3,3.25-3.01c0.17-1.56,0.26-3.1,0.26-4.59C569.35,150.61,565.8,140.68,558.79,132.54z"/>
		</g>
	</g>
</g>
</svg>
